<?xml version="1.0" encoding="UTF-8" standalone="no"?>
<svg width="478px" height="151px" viewBox="0 0 478 151" version="1.1" xmlns="http://www.w3.org/2000/svg" xmlns:xlink="http://www.w3.org/1999/xlink">
    <!-- Generator: Sketch 41.1 (35376) - http://www.bohemiancoding.com/sketch -->
    <title>interACT Logo_CMYK</title>
    <desc>Created with Sketch.</desc>
    <defs>
        <polygon id="path-1" points="0.0883869048 64.0367138 131.692211 64.0367138 131.692211 0.145291717 0.0883869048 0.145291717 0.0883869048 64.0367138"></polygon>
    </defs>
    <g id="Groups" stroke="none" stroke-width="1" fill="none" fill-rule="evenodd">
        <g id="Artboard" transform="translate(-23.000000, -21.000000)">
            <g id="interACT-Logo_CMYK" transform="translate(23.000000, 21.000000)">
                <path d="M405.993842,73.5289029 C407.644682,69.1133715 405.375134,64.2065964 400.928702,62.5743079 C396.486548,60.934941 391.545435,63.1873009 389.900298,67.5985852 C388.25231,72.0098695 390.520432,76.9180603 394.962586,78.5517644 C399.409018,80.1897156 404.345854,77.9373558 405.993842,73.5289029" id="Fill-1" fill="#FFFFFF"></path>
                <path d="M437.81883,114.697114 C432.166345,124.053397 446.643265,130.142272 446.643265,130.142272 C446.643265,130.142272 448.803042,114.677295 437.81883,114.697114" id="Fill-2" fill="#FFFFFF"></path>
                <path d="M456.901848,97.8362685 C458.009536,108.683271 473.27481,104.972752 473.27481,104.972752 C473.27481,104.972752 465.696345,91.2986206 456.901848,97.8362685" id="Fill-3" fill="#FFFFFF"></path>
                <path d="M460.420217,67.2078553 C467.803375,75.2857719 477.860949,63.2920618 477.860949,63.2920618 C477.860949,63.2920618 463.58789,56.7572453 460.420217,67.2078553" id="Fill-4" fill="#FFFFFF"></path>
                <path d="M445.152092,39.9006465 C454.391375,45.7984033 460.964795,31.6188708 460.964795,31.6188708 C460.964795,31.6188708 445.472851,28.9941849 445.152092,39.9006465" id="Fill-5" fill="#FFFFFF"></path>
                <path d="M335.341342,53.067962 C327.376542,60.5781876 318.238476,47.8794649 318.238476,47.8794649 C318.238476,47.8794649 332.964875,42.4120772 335.341342,53.067962" id="Fill-6" fill="#FFFFFF"></path>
                <path d="M352.780649,27.5685869 C341.877696,28.912075 342.130027,13.3026974 342.130027,13.3026974 C342.130027,13.3026974 357.241336,17.599311 352.780649,27.5685869" id="Fill-7" fill="#FFFFFF"></path>
                <path d="M382.287619,16.7527295 C371.411753,15.2379431 375.73986,0.230233006 375.73986,0.230233006 C375.73986,0.230233006 389.21031,8.27700447 382.287619,16.7527295" id="Fill-8" fill="#FFFFFF"></path>
                <path d="M417.524057,19.7638982 C428.27447,17.5384364 422.957,2.84925609 422.957,2.84925609 C422.957,2.84925609 410.051086,11.7666758 417.524057,19.7638982" id="Fill-9" fill="#FFFFFF"></path>
                <path d="M405.678786,50.3965584 C394.654658,37.8861222 414.704229,24.8617912 414.704229,24.8617912 C414.704229,24.8617912 422.157241,47.4759938 405.678786,50.3965584" id="Fill-10" fill="#FFFFFF"></path>
                <path d="M416.446307,60.6645446 C431.935399,66.9756824 437.863024,43.9240322 437.863024,43.9240322 C437.863024,43.9240322 413.905896,44.2312365 416.446307,60.6645446" id="Fill-11" fill="#FFFFFF"></path>
                <path d="M418.939673,77.8552459 C431.151321,89.2274688 444.948232,69.7759136 444.948232,69.7759136 C444.948232,69.7759136 422.450914,61.5988988 418.939673,77.8552459" id="Fill-12" fill="#FFFFFF"></path>
                <path d="M390.417789,51.0775044 C374.535232,45.8352112 385.175875,24.5191947 385.175875,24.5191947 C385.175875,24.5191947 403.139801,40.265894 390.417789,51.0775044" id="Fill-13" fill="#FFFFFF"></path>
                <path d="M377.042854,63.0244968 C360.322048,63.740835 362.628661,40.0577878 362.628661,40.0577878 C362.628661,40.0577878 385.058976,48.4259205 377.042854,63.0244968" id="Fill-14" fill="#FFFFFF"></path>
                <path d="M372.86586,77.119088 C361.012036,87.0388149 349.222363,68.3743823 349.222363,68.3743823 C349.222363,68.3743823 370.429518,61.9160129 372.86586,77.119088" id="Fill-15" fill="#FFFFFF"></path>
                <path d="M343.524259,72.811149 C336.248021,80.9796696 326.042185,69.1077088 326.042185,69.1077088 C326.042185,69.1077088 340.235411,62.4044254 343.524259,72.811149" id="Fill-16" fill="#FFFFFF"></path>
                <path d="M444.338077,83.506673 C452.737685,96.4503098 469.531196,82.0555926 469.531196,82.0555926 C469.531196,82.0555926 451.170955,69.6867252 444.338077,83.506673" id="Fill-17" fill="#FFFFFF"></path>
                <path d="M436.484473,92.4750574 C430.538315,106.691398 452.004929,112.233817 452.004929,112.233817 C452.004929,112.233817 451.821027,90.1986309 436.484473,92.4750574" id="Fill-18" fill="#FFFFFF"></path>
                <path d="M439.964351,58.5523379 C451.669914,68.6405317 463.736152,50.1516444 463.736152,50.1516444 C463.736152,50.1516444 442.617384,43.3832393 439.964351,58.5523379" id="Fill-19" fill="#FFFFFF"></path>
                <path d="M424.382595,38.3575464 C439.585143,41.3729621 440.84822,19.3759996 440.84822,19.3759996 C440.84822,19.3759996 419.130702,23.8693938 424.382595,38.3575464" id="Fill-20" fill="#FFFFFF"></path>
                <path d="M354.274673,51.7442936 C339.408565,56.1216013 336.12542,34.3313293 336.12542,34.3313293 C336.12542,34.3313293 358.167973,36.8441757 354.274673,51.7442936" id="Fill-21" fill="#FFFFFF"></path>
                <path d="M373.986378,34.2548821 C358.475902,34.3214194 361.472503,12.4929238 361.472503,12.4929238 C361.472503,12.4929238 381.922667,21.0309391 373.986378,34.2548821" id="Fill-22" fill="#FFFFFF"></path>
                <path d="M399.052619,29.0324085 C385.545104,21.4698024 399.024107,3.97472817 399.024107,3.97472817 C399.024107,3.97472817 412.543027,21.4457357 399.052619,29.0324085" id="Fill-23" fill="#FFFFFF"></path>
                <g id="Group-27" transform="translate(228.095238, 86.356977)">
                    <mask id="mask-2" fill="white">
                        <use xlink:href="#path-1"></use>
                    </mask>
                    <g id="Clip-25"></g>
                    <path d="M34.6932857,15.865093 L25.4910685,40.0861016 L44.8178631,40.0861016 L34.6932857,15.865093 Z M71.416619,63.300556 L54.5732113,63.300556 L49.4196845,50.961418 L21.3497143,50.961418 L16.6552292,63.300556 L0.0883869048,63.300556 L25.3969792,0.967806534 L43.529125,0.967806534 L71.416619,63.300556 L71.416619,63.300556 Z" id="Fill-24" fill="#FFFFFF" mask="url(#mask-2)"></path>
                    <path d="M131.692211,57.9081998 C122.94761,62.3860214 116.322869,64.1216551 107.026562,64.1216551 C82.6374792,64.1216551 70.487131,48.4032695 70.487131,32.316805 C70.487131,15.6824692 84.1999315,0.145291717 108.222637,0.145291717 C116.965812,0.145291717 124.789479,1.97294512 130.955179,5.62966763 L130.955179,19.5218155 C124.053872,15.6824692 117.057051,13.122905 109.326048,13.122905 C95.9810506,13.122905 86.593506,20.9842213 86.593506,32.0421615 C86.593506,43.1935371 95.8898125,51.1440418 108.95967,51.1440418 C117.15114,51.1440418 122.67247,48.5858933 131.692211,44.2906954 L131.692211,57.9081998" id="Fill-26" fill="#FFFFFF" mask="url(#mask-2)"></path>
                </g>
                <polyline id="Fill-28" fill="#FFFFFF" points="428.897455 98.7493873 406.164914 98.7493873 406.164914 149.657533 390.519006 149.657533 390.519006 98.7493873 367.785039 98.7493873 367.785039 87.3247839 428.897455 87.3247839 428.897455 98.7493873"></polyline>
                <path d="M27.0791815,60.1449871 C27.0791815,58.4348358 27.7435089,56.9087239 29.0721637,55.5652359 C30.3993929,54.2217478 31.9490149,53.5507116 33.7196042,53.5507116 C35.3918274,53.5507116 36.8188482,54.1368065 37.9992411,55.3089963 C39.1796339,56.4811861 39.7698304,57.8246742 39.7698304,59.3394605 C39.7698304,61.2931102 39.0327976,63.0754615 37.5573065,64.6879303 C36.6720119,65.6166218 35.0482589,66.0795518 32.6874732,66.0795518 C31.1121905,66.0795518 29.7849613,65.543006 28.7029345,64.4684987 C27.6194821,63.3939914 27.0791815,61.9528208 27.0791815,60.1449871 Z M22.8736756,93.0441641 C21.840119,93.0441641 21.0774256,93.1177799 20.5855952,93.2635957 C18.2732798,94.4853346 16.5768214,95.5357752 15.4947946,96.4149176 C13.2808452,98.1250689 11.1909226,100.128268 9.22360119,102.423098 L4.94396429,103.375856 C8.73319643,98.2963671 12.9415536,94.315452 17.5690357,91.4316953 C22.1950923,88.5507699 25.8374881,87.1095993 28.4962232,87.1095993 C29.6267202,87.1095993 30.4749494,87.3899056 31.0423363,87.9533495 C31.606872,88.5153777 31.8905655,89.2359629 31.8905655,90.1151053 C31.8905655,92.5104496 30.5120149,96.4941961 27.7591905,102.064929 C27.4127708,102.748706 26.6016071,104.506991 25.3214226,107.339783 C22.3675893,113.737278 19.2155982,119.795007 15.8683006,125.507309 C14.7848482,127.363276 13.6030298,129.560424 12.3242708,132.100169 C11.6342827,133.467724 11.0184256,134.614431 10.478125,135.543122 C8.9527381,138.084283 8.19004464,139.964317 8.19004464,141.18464 C8.19004464,141.527236 8.32547619,141.833025 8.59633929,142.10059 C8.86577679,142.369571 9.19794048,142.504061 9.59283036,142.504061 C10.133131,142.504061 10.9556994,142.211014 12.0619613,141.624919 C13.9109583,140.648094 16.1163542,139.0243 18.6781488,136.75212 C21.2399435,134.481356 23.4980863,131.879322 25.454003,128.947431 L28.7029345,128.947431 C27.2103363,131.586274 25.0106429,134.614431 22.1052798,138.033318 C19.1999167,141.45362 15.8939613,144.18873 12.1902649,146.240062 C9.41320536,147.804398 6.9440744,148.584442 4.78287202,148.584442 C3.13773512,148.584442 1.92883036,148.256002 1.15758333,147.596291 C0.384910714,146.936581 0,146.07018 0,144.994257 C0,141.234189 2.77848512,134.150085 8.33830655,123.746193 L20.2177917,101.47034 C21.4466548,99.1755095 22.3077143,97.3676757 22.7995446,96.0482543 C23.0946429,95.2186611 23.2429048,94.6566329 23.2429048,94.3635854 C23.2429048,94.1186714 23.118878,93.6798081 22.8736756,93.0441641 L22.8736756,93.0441641 Z" id="Fill-29" fill="#FFFFFF"></path>
                <path d="M57.0366399,96.0482543 C56.9368482,95.6575244 56.8028423,95.3885437 56.6303452,95.2427278 C56.4578482,95.0954962 56.2482857,95.0232961 56.0030833,95.0232961 C53.4455655,95.0232961 49.4610268,99.0296936 44.0494673,107.039657 C43.5077411,107.089206 43.1157024,107.113273 42.8690744,107.113273 C42.5739762,107.113273 42.0821458,107.089206 41.3935833,107.039657 C42.4257143,104.988325 44.1079167,102.400447 46.4430417,99.2731919 C48.7781667,96.1473525 51.260128,93.5453177 53.8903512,91.4685032 C56.5177232,89.3931043 59.0139405,87.8415101 61.371875,86.8165519 C62.1588036,86.4739553 62.8716012,86.3026571 63.5116935,86.3026571 C63.7568958,86.3026571 64.1246994,86.3281395 64.6165298,86.3762729 C65.5003988,87.2539995 65.9437589,88.1543772 65.9437589,89.0788216 C65.9437589,89.6649164 65.8810327,90.252427 65.7584315,90.8385219 C65.6358304,91.4260325 65.3777976,92.3292416 64.9857589,93.5509804 C63.5116935,97.7513272 62.4296667,100.7087 61.7425298,102.418851 L57.539875,113.265854 C56.5576399,115.757465 55.5996399,118.396308 54.665875,121.180966 C55.0579137,120.692554 55.4029077,120.228208 55.698006,119.789345 C60.2741667,113.14552 65.211003,106.783418 70.5028125,100.701621 C75.7931964,94.619825 80.1626458,90.5525529 83.6083095,88.5012208 C86.0688869,86.9878501 88.4068631,86.230457 90.6222381,86.230457 C92.2958869,86.230457 93.598881,86.6820615 94.535497,87.5866862 C95.4706875,88.491311 95.9382827,89.6535909 95.9382827,91.0706948 C95.9382827,91.9512528 95.8384911,92.8063285 95.6431845,93.6373374 C95.2996161,95.4933046 94.535497,98.0825982 93.3536786,101.402387 C92.1718601,104.725007 89.0711905,111.928028 84.0488185,123.015698 L76.6628095,139.938834 L76.3677113,140.891592 C76.3677113,141.18464 76.5402083,141.624919 76.8852024,142.211014 C79.6394524,141.624919 83.7708274,137.27734 89.280753,129.168279 L92.3058661,129.240479 C90.7804792,131.977004 88.2714315,135.493573 84.7801488,139.791603 C82.074369,143.066089 79.1718571,145.605834 76.0726131,147.412252 C74.350494,148.438626 72.5057738,148.951105 70.5384524,148.951105 C69.3580595,148.951105 68.4727649,148.706191 67.8825685,148.219194 C67.292372,147.730782 66.9972738,147.19282 66.9972738,146.606725 C66.9972738,144.018847 68.2517976,140.01245 70.7608452,134.590364 L81.4599375,111.363169 L85.5913125,101.617572 C86.5250774,99.4685569 87.0910387,97.9778373 87.2877708,97.148244 C87.484503,96.3172351 87.582869,95.4876418 87.582869,94.6566329 C87.582869,94.0224046 87.410372,93.521251 87.0668036,93.1545877 C86.7218095,92.7879245 86.279875,92.6053007 85.7381488,92.6053007 C84.9497946,92.6053007 84.0402649,92.9224149 83.0067083,93.5566432 C79.3643125,95.7070735 75.3526875,99.3949411 70.9732589,104.621662 C64.6749792,112.144629 60.4908571,117.542648 58.423744,120.814303 C53.2645149,128.92478 48.7667619,137.203725 44.9361875,145.653967 C44.3445655,147.021522 43.6317679,148.023829 42.7949435,148.658058 C41.7628125,148.805289 40.9758839,148.878905 40.4341577,148.878905 C39.7954911,148.878905 38.8118304,148.757156 37.4831756,148.512242 C37.2864435,148.120096 37.1880774,147.804398 37.1880774,147.559484 C37.1880774,147.168754 37.4332798,146.289611 37.9251101,144.922056 C39.0071369,141.746668 41.6644464,135.05471 45.8941875,124.844767 L47.5920714,120.887919 L57.0366399,96.0482543" id="Fill-30" fill="#FFFFFF"></path>
                <path d="M122.330327,93.5566432 L117.835426,93.5566432 L115.769738,93.4844431 L110.974036,93.630259 L110.01461,93.630259 C110.112976,92.5557517 110.537804,91.3099461 111.284815,89.8928422 C118.45556,89.698893 122.713812,89.5275947 124.058149,89.3803631 C125.017574,87.0359835 125.83444,85.1559497 126.507321,83.7388458 C127.954301,80.5634573 129.452601,76.8019739 130.999372,72.4543956 C131.481223,71.0387074 132.01297,69.7433527 132.593187,68.571163 C133.675214,68.4239314 134.928312,68.3517313 136.355333,68.3517313 C137.537152,68.3517313 138.666223,68.4734805 139.749676,68.7183945 L139.895086,69.8905843 C139.895086,70.8178601 137.722479,76.1918123 133.382967,86.0096096 C132.902542,87.133666 132.490545,88.2817891 132.154104,89.4539789 C133.564018,89.698893 134.390863,89.8206421 134.63464,89.8206421 L136.16858,89.8206421 L138.64769,89.8928422 L145.653065,89.7470264 C145.653065,91.3594952 145.357967,92.6775008 144.767771,93.7038748 C142.82611,93.9006554 140.27572,93.9983379 137.122304,93.9983379 C135.568405,93.9983379 134.571914,94.0238203 134.135682,94.0719537 C131.657997,94.3182834 130.228125,94.5646131 129.840363,94.8095272 L117.831149,123.413506 C116.492515,126.169851 114.200158,131.41356 110.954077,139.146049 C110.954077,139.437681 111.102339,139.774614 111.397437,140.159682 L112.355437,140.305497 C113.684092,140.305497 115.33208,139.475904 117.299402,137.813886 C121.571911,134.150085 125.606345,129.877538 129.399854,124.991999 C130.21672,125.430862 130.93522,125.943341 131.559631,126.529436 C126.711182,132.44135 123.301158,136.337324 121.332411,138.217357 C119.363664,140.097391 116.867446,142.052457 113.842333,144.079722 C110.81722,146.106987 108.993884,147.240954 108.369473,147.485868 C107.264637,147.926147 106.135565,148.145578 104.98511,148.145578 C103.783333,148.145578 102.895187,147.889339 102.319247,147.37686 C101.741881,146.864381 101.455336,146.118313 101.455336,145.141488 C101.455336,143.7258 102.631452,140.428662 104.983685,135.250075 L108.077226,128.434952 L118.94739,102.423098 C120.338771,99.0523446 121.466417,96.0978034 122.330327,93.5566432" id="Fill-31" fill="#FFFFFF"></path>
                <path d="M151.777423,116.711639 C153.349854,116.761188 155.810432,116.14961 159.156304,114.879738 C160.975363,114.197376 163.384619,112.852473 166.386923,110.849274 C167.567315,110.067814 168.91878,108.737067 170.445592,106.857033 C171.969554,104.977 173.124286,103.021934 173.91264,100.994669 C174.699568,98.968819 175.093033,96.8792633 175.093033,94.7302487 C175.093033,93.3131448 174.673908,92.140955 173.838509,91.2122636 C173.001685,90.2849879 172.06792,89.8206421 171.035789,89.8206421 C169.707134,89.8206421 168.131851,90.5780353 166.312792,92.0914059 C163.262018,94.7302487 160.064408,99.1514428 156.721387,105.353573 C154.212339,110.093297 152.564351,113.878847 151.777423,116.711639 Z M150.522899,120.449055 C148.899146,124.880159 148.087982,129.359397 148.087982,133.889599 C148.087982,137.200893 148.874911,139.855309 150.448768,141.851429 C151.482324,143.216152 152.883685,143.895683 154.654274,143.895683 C155.736301,143.895683 156.695726,143.677667 157.532551,143.240219 C159.35161,142.315775 160.914062,141.221448 162.217057,139.957238 C163.520051,138.693029 164.885771,137.040921 166.312792,134.999498 C167.738387,132.95666 168.89597,130.67174 169.781265,128.141905 L170.813396,128.141905 C171.403592,128.141905 172.06792,128.191454 172.806378,128.289136 C171.330887,133.740951 167.689917,139.095084 161.886318,144.35295 C158.245348,147.61328 154.481777,149.244152 150.59703,149.244152 C147.989616,149.244152 145.775667,148.071963 143.955182,145.727583 C141.5445,142.649877 140.339872,138.399981 140.339872,132.977896 C140.339872,130.633516 140.696271,127.824791 141.409068,124.55172 C142.121866,121.278649 142.94586,118.543539 143.882476,116.344975 C145.357967,112.926089 147.00453,109.702567 148.82644,106.672994 L154.507437,98.4662497 C158.196878,94.5589504 160.262565,92.4099358 160.705926,92.0177902 C162.426619,90.5525529 164.160143,89.4426534 165.906497,88.6852602 C167.652851,87.9278671 169.460506,87.5484627 171.330887,87.5484627 C173.740143,87.5484627 175.854301,88.5536012 177.676211,90.5596314 C179.495271,92.5684929 180.406226,95.0884178 180.406226,98.1236532 C180.406226,100.816292 179.706259,103.472123 178.302048,106.092562 C176.902113,108.711585 175.388131,110.634089 173.765804,111.855828 L167.641446,115.822586 C166.951458,116.165183 165.106738,116.790917 162.107286,117.695542 C159.104982,118.601582 155.24447,119.518948 150.522899,120.449055 L150.522899,120.449055 Z" id="Fill-32" fill="#FFFFFF"></path>
                <path d="M200.919116,93.0441641 C199.295363,94.2163539 197.769976,95.5853243 196.344381,97.148244 C195.949491,97.5871074 193.711307,100.517582 189.629827,105.939667 L186.604714,106.086899 C187.830726,103.449472 190.111679,100.201883 193.448997,96.3413018 C196.78489,92.4835516 199.680274,89.8447088 202.135149,88.427605 C203.706155,87.5003293 205.472467,86.9623678 207.435512,86.8165519 C208.661524,87.1549013 209.508327,87.615 209.975923,88.1954321 C210.442092,88.77728 210.67589,89.4794613 210.67589,90.3019761 C210.67589,91.1244909 210.577524,91.9470058 210.380792,92.7695206 C209.839065,95.43243 208.762741,99.254788 207.15467,104.236595 C205.543747,109.219817 204.105321,113.152599 202.836542,116.033524 L199.000265,125.045795 L198.705167,126.365216 C199.392304,125.193026 200.795089,122.579666 202.910673,118.525135 C210.92822,103.436731 216.709009,94.1257498 220.250187,90.5921922 C222.856176,88.0750987 225.906949,86.8165519 229.399658,86.8165519 C231.366979,86.8165519 233.211699,87.5980117 234.933818,89.1609315 C236.211152,90.3826703 236.85267,91.9937235 236.85267,93.9969222 C236.85267,96.2436193 236.138446,98.1732023 234.712851,99.7856711 C233.727765,100.909727 232.326405,101.47034 230.50592,101.47034 C228.980533,101.47034 227.911336,101.116418 227.296905,100.408574 C226.681048,99.7007298 226.300414,97.9297039 226.153577,95.0954962 C225.51206,93.8256239 224.799262,93.1913956 224.013759,93.1913956 C223.225405,93.1913956 222.390006,93.6061923 221.504711,94.4343698 C219.139649,96.531004 214.678961,103.24986 208.1255,114.589522 C201.573464,125.929184 197.472027,133.803242 195.819762,138.217357 C194.168923,142.630057 192.827437,145.666708 191.792455,147.324479 C191.255006,148.163982 190.254238,148.584442 188.790152,148.584442 C187.471476,148.584442 186.532009,148.352269 185.970324,147.889339 C185.40864,147.424993 185.127798,146.826157 185.127798,146.094246 C185.127798,145.117421 185.373,143.993365 185.866256,142.723493 C187.980414,137.594455 191.374756,128.141905 196.049283,114.367259 L201.214214,98.6856814 C201.557783,97.2883972 201.804411,96.3965136 201.951247,96.0100308 L202.394607,94.9256136 C202.394607,94.442864 201.901351,93.8157141 200.919116,93.0441641" id="Fill-33" fill="#FFFFFF"></path>
            </g>
        </g>
    </g>
</svg>